<?xml version="1.0" standalone="no"?>
<!DOCTYPE svg PUBLIC "-//W3C//DTD SVG 20010904//EN"
 "http://www.w3.org/TR/2001/REC-SVG-20010904/DTD/svg10.dtd">
<svg version="1.0" xmlns="http://www.w3.org/2000/svg"
 width="587.000000pt" height="315.000000pt" viewBox="0 0 587.000000 315.000000"
 preserveAspectRatio="xMidYMid meet">

<g transform="translate(0.000000,315.000000) scale(0.100000,-0.100000)"
fill="#404098" stroke="none">
<path d="M2834 3050 c-191 -28 -337 -152 -407 -345 -14 -38 -41 -97 -61 -130
-86 -141 -97 -309 -34 -505 26 -81 108 -244 145 -289 l28 -33 85 25 c47 14 97
28 113 32 27 5 27 6 27 93 l0 87 -36 29 c-45 35 -97 117 -119 185 -17 51 -18
51 -51 45 -29 -5 -38 -2 -68 28 -39 39 -55 96 -38 133 15 32 58 43 93 23 27
-16 27 -16 39 26 27 92 82 176 133 203 26 14 57 18 157 18 131 0 164 9 216 56
20 19 20 19 39 -23 10 -23 40 -63 67 -89 36 -35 48 -53 48 -76 0 -16 7 -52 15
-81 l15 -51 28 16 c36 21 79 11 94 -22 15 -34 2 -91 -32 -128 -23 -26 -35 -32
-69 -31 l-40 1 -16 -52 c-20 -70 -70 -142 -127 -185 l-48 -35 0 -78 c0 -54 4
-79 13 -81 6 -2 64 -15 127 -30 63 -15 121 -31 129 -35 36 -23 -66 -143 -154
-181 -114 -49 -309 -64 -453 -34 -121 25 -192 70 -224 140 l-19 44 -78 -39
c-111 -56 -205 -131 -311 -246 -167 -182 -358 -455 -345 -494 12 -38 82 -117
134 -150 55 -36 161 -76 229 -87 l42 -7 0 267 0 267 25 24 24 25 719 0 719 0
21 -23 c22 -23 22 -30 22 -305 l0 -282 189 0 c116 0 192 4 196 10 4 7 -53 10
-162 11 l-168 1 65 14 c88 18 144 40 213 81 57 34 129 112 142 154 13 39 -191
331 -342 490 -57 60 -83 94 -83 111 0 31 -54 121 -124 204 -30 37 -57 77 -61
91 -4 16 10 61 44 141 27 64 57 144 66 176 41 142 -16 301 -143 401 -48 38
-56 50 -80 122 -83 244 -331 408 -568 373z"/>
<path d="M2599 2471 c-36 -36 -39 -43 -39 -95 0 -50 4 -60 34 -93 30 -33 39
-37 93 -41 56 -4 62 -2 97 28 20 18 39 44 42 59 9 36 33 61 58 61 32 0 43 -11
65 -63 25 -58 68 -87 130 -87 106 0 170 101 124 197 -25 54 -65 73 -154 73
-63 0 -79 -3 -94 -20 -15 -17 -16 -20 -3 -20 14 0 14 -5 0 -44 -14 -39 -19
-43 -35 -34 -11 5 -34 7 -53 3 -29 -5 -34 -3 -34 12 0 10 -7 28 -15 40 -12 16
-12 23 -2 27 8 3 6 9 -7 20 -14 11 -42 16 -94 16 -73 0 -75 -1 -113 -39z m53
13 c-30 -21 -28 -37 6 -30 15 3 50 8 79 11 48 6 53 5 69 -20 22 -34 21 -105
-2 -139 -49 -76 -179 -74 -219 4 -31 61 -11 145 43 174 36 20 52 20 24 0z
m502 -5 c101 -80 52 -229 -75 -229 -42 0 -55 5 -87 34 -34 32 -37 39 -37 89 0
69 23 100 69 93 17 -3 51 -8 76 -11 l44 -6 -24 26 c-30 32 -6 35 34 4z"/>
<path d="M2713 2403 c-18 -7 -16 -52 3 -60 23 -9 51 23 38 44 -12 19 -23 24
-41 16z"/>
<path d="M3009 2394 c-16 -20 0 -49 27 -49 35 0 28 64 -7 65 -4 0 -12 -7 -20
-16z"/>
<path d="M2476 2376 c17 -8 39 -24 48 -37 12 -18 16 -20 16 -7 0 22 -47 58
-74 58 -17 -1 -15 -4 10 -14z"/>
<path d="M3272 2374 c-12 -8 -27 -25 -33 -37 -10 -19 -8 -19 17 5 16 15 40 31
54 37 22 8 22 10 5 10 -11 1 -31 -6 -43 -15z"/>
<path d="M2858 2304 c-12 -11 -9 -38 5 -58 11 -15 18 -17 33 -8 18 11 18 11
-3 12 -17 0 -22 7 -25 31 -2 17 -6 27 -10 23z"/>
<path d="M2772 2174 c32 -33 228 -28 228 7 0 6 -8 7 -22 2 -31 -11 -178 -10
-203 1 -19 8 -19 8 -3 -10z"/>
<path d="M1790 680 c0 -6 62 -10 165 -10 103 0 165 4 165 10 0 6 -62 10 -165
10 -103 0 -165 -4 -165 -10z"/>
</g>
</svg>
