<?xml version="1.0" standalone="no"?>
<!DOCTYPE svg PUBLIC "-//W3C//DTD SVG 20010904//EN"
 "http://www.w3.org/TR/2001/REC-SVG-20010904/DTD/svg10.dtd">
<svg version="1.0" xmlns="http://www.w3.org/2000/svg"
 width="512.000000pt" height="512.000000pt" viewBox="0 0 512.000000 512.000000"
 preserveAspectRatio="xMidYMid meet">
<g transform="translate(0.000000,512.000000) scale(0.100000,-0.100000)"
fill="rgba(0, 0, 0, 0.350)" stroke="none">
<path d="M1192 5100 c-63 -39 -72 -67 -72 -232 l0 -147 -307 -3 c-304 -3 -309
-4 -375 -29 -100 -39 -173 -86 -247 -160 -74 -73 -121 -146 -160 -247 l-26
-67 0 -1855 0 -1855 26 -67 c39 -101 86 -174 160 -247 76 -76 147 -121 251
-159 l73 -27 2040 0 2040 0 70 22 c197 63 365 231 428 428 l22 70 0 1835 0
1835 -22 70 c-62 194 -227 361 -423 427 -60 21 -87 23 -367 26 l-303 3 0 147
c0 165 -9 193 -72 232 -45 27 -131 27 -176 0 -63 -39 -72 -67 -72 -232 l0
-148 -1120 0 -1120 0 0 148 c0 129 -2 151 -20 180 -30 48 -75 72 -140 72 -37
0 -66 -6 -88 -20z m-72 -807 c0 -122 13 -157 72 -193 45 -27 131 -27 176 0 59
36 72 71 72 193 l0 107 1120 0 1120 0 0 -107 c0 -122 13 -157 72 -193 45 -27
131 -27 176 0 59 36 72 71 72 194 l0 108 263 -4 c287 -5 308 -9 391 -69 50
-35 94 -94 121 -159 15 -37 19 -82 23 -267 l4 -223 -2241 0 -2241 0 0 178 c0
205 9 279 40 345 45 96 148 171 255 187 28 4 152 8 278 9 l227 1 0 -107z
m3678 -2315 c-3 -1338 -4 -1384 -22 -1428 -43 -101 -125 -179 -221 -212 -33
-11 -385 -13 -1995 -13 -1897 0 -1956 1 -2005 19 -100 38 -167 104 -211 206
-18 44 -19 90 -22 1428 l-3 1382 2241 0 2241 0 -3 -1382z"/>
</g>
</svg>
