<svg xmlns="http://www.w3.org/2000/svg" xmlns:xlink="http://www.w3.org/1999/xlink" viewBox="0 0 100 125" version="1.1" x="0px" y="0px">

<desc>Created with Sketch</desc>
<g stroke="none" stroke-width="1" fill="none" fill-rule="evenodd">
<g fill="rgba(0, 0, 0, 0.400)">
<path d="M69.7989899,63.7989899 C68.2368927,65.361087 65.7042328,65.361087 64.1421356,63.7989899 C62.5800385,62.2368927 62.5800385,59.7042328 64.1421356,58.1421356 C71.9526215,50.3316498 71.9526215,37.6683502 64.1421356,29.8578644 C56.3316498,22.0473785 43.6683502,22.0473785 35.8578644,29.8578644 C28.0473785,37.6683502 28.0473785,50.3316498 35.8578644,58.1421356 C37.4199615,59.7042328 37.4199615,62.2368927 35.8578644,63.7989899 C34.2957672,65.361087 31.7631073,65.361087 30.2010101,63.7989899 C19.26633,52.8643097 19.26633,35.1356903 30.2010101,24.2010101 C41.1356903,13.26633 58.8643097,13.26633 69.7989899,24.2010101 C80.73367,35.1356903 80.73367,52.8643097 69.7989899,63.7989899 Z M52.4231712,35.0105078 L61.7609222,44.1796472 C65.5183877,47.9505572 59.8816913,53.6074221 56.1242259,49.8365121 L56.0871154,49.7988168 C54.9301603,48.6236277 53.9861417,49.0098381 53.9861417,50.6691117 L53.9861417,80.0075518 C53.9861417,82.210522 52.1912527,84 49.9771449,84 L50.0238515,84 C47.8037671,84 46.0148547,82.21252 46.0148547,80.0075518 L46.0148547,50.6691117 C46.0148547,49.001015 45.0737784,48.6201938 43.9129019,49.7988168 L43.8757741,49.8365121 C40.1183087,53.6074221 34.4816123,47.9505572 38.2390778,44.1796472 L47.4492517,35.0247054 C48.8179934,33.6641718 51.0452464,33.6574641 52.4231712,35.0105078 Z" transform="translate(50.000000, 50.000000) rotate(-270.000000) translate(-50.000000, -50.000000) "/>
</g></g>



</svg>