<?xml version="1.0" standalone="no"?>
<!DOCTYPE svg PUBLIC "-//W3C//DTD SVG 20010904//EN"
 "http://www.w3.org/TR/2001/REC-SVG-20010904/DTD/svg10.dtd">
<svg version="1.0" xmlns="http://www.w3.org/2000/svg"
 width="512.000000pt" height="512.000000pt" viewBox="0 0 512.000000 512.000000"
 preserveAspectRatio="xMidYMid meet">

<g transform="translate(0.000000,512.000000) scale(0.100000,-0.100000)"
fill="rgba(0, 0, 0, 0.350)" stroke="none">
<path d="M4245 5104 c-33 -8 -98 -33 -145 -56 l-85 -41 -1267 -1266 -1268
-1265 -195 -586 c-107 -322 -195 -594 -195 -605 0 -67 45 -142 103 -172 69
-35 98 -28 707 175 l575 192 1261 1263 c1343 1344 1293 1291 1352 1449 25 68
27 84 27 228 0 144 -2 160 -27 228 -42 114 -85 180 -172 268 -88 88 -155 131
-268 171 -63 23 -92 27 -208 29 -95 3 -153 -1 -195 -12z m237 -365 c72 -15
116 -39 168 -91 65 -65 94 -136 94 -228 0 -149 95 -43 -1258 -1397 l-1211
-1213 -344 -115 c-190 -63 -346 -113 -348 -112 -1 2 49 158 112 348 l115 344
1208 1207 c664 663 1223 1214 1242 1224 35 17 119 42 152 43 9 1 41 -4 70 -10z"/>
<path d="M435 4748 c-77 -14 -203 -80 -261 -135 -64 -61 -117 -141 -147 -218
l-22 -60 -3 -1940 c-2 -1751 -1 -1945 14 -1994 54 -187 196 -329 383 -385 49
-14 223 -16 1800 -16 l1746 1 66 22 c138 47 251 141 316 262 65 124 63 82 63
1158 0 665 -3 985 -11 1004 -13 34 -55 80 -91 99 -34 18 -119 18 -161 0 -39
-16 -82 -61 -96 -99 -8 -19 -11 -331 -11 -976 l0 -947 -25 -50 c-14 -28 -40
-59 -62 -74 l-37 -25 -1701 0 -1701 0 -41 27 c-24 16 -49 44 -62 70 l-21 44 0
1860 c0 1794 1 1860 19 1900 10 23 36 54 57 70 l37 29 1156 5 c1133 5 1157 5
1190 25 125 74 135 241 19 321 l-41 29 -1161 1 c-695 1 -1181 -2 -1211 -8z"/>
</g>
</svg>
